<svg width="119" height="119" viewBox="0 0 119 119" fill="none" xmlns="http://www.w3.org/2000/svg">
<circle cx="0.5" cy="0.5" r="0.5" fill="black"/>
<circle cx="7.5" cy="0.5" r="0.5" fill="black"/>
<circle cx="14.5" cy="0.5" r="0.5" fill="black"/>
<circle cx="21.5" cy="0.5" r="0.5" fill="black"/>
<circle cx="28.5" cy="0.5" r="0.5" fill="black"/>
<circle cx="35.5" cy="0.5" r="0.5" fill="black"/>
<circle cx="42.5" cy="0.5" r="0.5" fill="black"/>
<circle cx="49.5" cy="0.5" r="0.5" fill="black"/>
<circle cx="56.5" cy="0.5" r="0.5" fill="black"/>
<circle cx="63.5" cy="0.5" r="0.5" fill="black"/>
<circle cx="70.5" cy="0.5" r="0.5" fill="black"/>
<circle cx="77.5" cy="0.5" r="0.5" fill="black"/>
<circle cx="84.5" cy="0.5" r="0.5" fill="black"/>
<circle cx="91.5" cy="0.5" r="0.5" fill="black"/>
<circle cx="98.5" cy="0.5" r="0.5" fill="black"/>
<circle cx="0.5" cy="7.5" r="0.5" fill="black"/>
<circle cx="7.5" cy="7.5" r="0.5" fill="black"/>
<circle cx="14.5" cy="7.5" r="0.5" fill="black"/>
<circle cx="21.5" cy="7.5" r="0.5" fill="black"/>
<circle cx="28.5" cy="7.5" r="0.5" fill="black"/>
<circle cx="35.5" cy="7.5" r="0.5" fill="black"/>
<circle cx="42.5" cy="7.5" r="0.5" fill="black"/>
<circle cx="49.5" cy="7.5" r="0.5" fill="black"/>
<circle cx="56.5" cy="7.5" r="0.5" fill="black"/>
<circle cx="63.5" cy="7.5" r="0.5" fill="black"/>
<circle cx="70.5" cy="7.5" r="0.5" fill="black"/>
<circle cx="77.5" cy="7.5" r="0.5" fill="black"/>
<circle cx="84.5" cy="7.5" r="0.5" fill="black"/>
<circle cx="91.5" cy="7.5" r="0.5" fill="black"/>
<circle cx="98.5" cy="7.5" r="0.5" fill="black"/>
<circle cx="0.5" cy="14.5" r="0.5" fill="black"/>
<circle cx="7.5" cy="14.5" r="0.5" fill="black"/>
<circle cx="14.5" cy="14.5" r="0.5" fill="black"/>
<circle cx="21.5" cy="14.5" r="0.5" fill="black"/>
<circle cx="28.5" cy="14.5" r="0.5" fill="black"/>
<circle cx="35.5" cy="14.5" r="0.5" fill="black"/>
<circle cx="42.5" cy="14.5" r="0.5" fill="black"/>
<circle cx="49.5" cy="14.5" r="0.5" fill="black"/>
<circle cx="56.5" cy="14.5" r="0.5" fill="black"/>
<circle cx="63.5" cy="14.5" r="0.5" fill="black"/>
<circle cx="70.5" cy="14.5" r="0.5" fill="black"/>
<circle cx="77.5" cy="14.5" r="0.5" fill="black"/>
<circle cx="84.5" cy="14.5" r="0.5" fill="black"/>
<circle cx="91.5" cy="14.5" r="0.5" fill="black"/>
<circle cx="98.5" cy="14.5" r="0.5" fill="black"/>
<circle cx="0.5" cy="21.5" r="0.5" fill="black"/>
<circle cx="7.5" cy="21.5" r="0.5" fill="black"/>
<circle cx="14.5" cy="21.5" r="0.5" fill="black"/>
<circle cx="21.5" cy="21.5" r="0.5" fill="black"/>
<circle cx="28.5" cy="21.5" r="0.5" fill="black"/>
<circle cx="35.5" cy="21.5" r="0.5" fill="black"/>
<circle cx="42.5" cy="21.5" r="0.5" fill="black"/>
<circle cx="49.5" cy="21.5" r="0.5" fill="black"/>
<circle cx="56.5" cy="21.5" r="0.5" fill="black"/>
<circle cx="63.5" cy="21.5" r="0.5" fill="black"/>
<circle cx="70.5" cy="21.5" r="0.5" fill="black"/>
<circle cx="77.5" cy="21.5" r="0.5" fill="black"/>
<circle cx="84.5" cy="21.5" r="0.5" fill="black"/>
<circle cx="91.5" cy="21.5" r="0.5" fill="black"/>
<circle cx="98.5" cy="21.5" r="0.5" fill="black"/>
<circle cx="0.5" cy="28.5" r="0.5" fill="black"/>
<circle cx="7.5" cy="28.5" r="0.5" fill="black"/>
<circle cx="14.5" cy="28.5" r="0.5" fill="black"/>
<circle cx="21.5" cy="28.5" r="0.5" fill="black"/>
<circle cx="28.5" cy="28.5" r="0.5" fill="black"/>
<circle cx="35.5" cy="28.5" r="0.5" fill="black"/>
<circle cx="42.5" cy="28.5" r="0.5" fill="black"/>
<circle cx="49.5" cy="28.5" r="0.5" fill="black"/>
<circle cx="56.5" cy="28.5" r="0.5" fill="black"/>
<circle cx="63.5" cy="28.5" r="0.5" fill="black"/>
<circle cx="70.5" cy="28.5" r="0.5" fill="black"/>
<circle cx="77.5" cy="28.5" r="0.5" fill="black"/>
<circle cx="84.5" cy="28.5" r="0.5" fill="black"/>
<circle cx="91.5" cy="28.5" r="0.5" fill="black"/>
<circle cx="98.5" cy="28.5" r="0.5" fill="black"/>
<circle cx="0.5" cy="35.5" r="0.5" fill="black"/>
<circle cx="7.5" cy="35.5" r="0.5" fill="black"/>
<circle cx="14.5" cy="35.5" r="0.5" fill="black"/>
<circle cx="21.5" cy="35.5" r="0.5" fill="black"/>
<circle cx="28.5" cy="35.5" r="0.5" fill="black"/>
<circle cx="35.5" cy="35.5" r="0.5" fill="black"/>
<circle cx="42.5" cy="35.5" r="0.5" fill="black"/>
<circle cx="49.5" cy="35.5" r="0.5" fill="black"/>
<circle cx="56.5" cy="35.5" r="0.5" fill="black"/>
<circle cx="63.5" cy="35.5" r="0.5" fill="black"/>
<circle cx="70.5" cy="35.5" r="0.5" fill="black"/>
<circle cx="77.5" cy="35.5" r="0.5" fill="black"/>
<circle cx="84.5" cy="35.5" r="0.5" fill="black"/>
<circle cx="91.5" cy="35.5" r="0.5" fill="black"/>
<circle cx="98.5" cy="35.5" r="0.5" fill="black"/>
<circle cx="0.5" cy="42.5" r="0.5" fill="black"/>
<circle cx="7.5" cy="42.5" r="0.5" fill="black"/>
<circle cx="14.5" cy="42.5" r="0.5" fill="black"/>
<circle cx="21.5" cy="42.5" r="0.5" fill="black"/>
<circle cx="28.5" cy="42.5" r="0.5" fill="black"/>
<circle cx="35.5" cy="42.5" r="0.5" fill="black"/>
<circle cx="42.5" cy="42.5" r="0.5" fill="black"/>
<circle cx="49.5" cy="42.5" r="0.5" fill="black"/>
<circle cx="56.5" cy="42.5" r="0.5" fill="black"/>
<circle cx="63.5" cy="42.5" r="0.5" fill="black"/>
<circle cx="70.5" cy="42.5" r="0.5" fill="black"/>
<circle cx="77.5" cy="42.5" r="0.5" fill="black"/>
<circle cx="84.5" cy="42.5" r="0.5" fill="black"/>
<circle cx="91.5" cy="42.5" r="0.5" fill="black"/>
<circle cx="98.5" cy="42.5" r="0.5" fill="black"/>
<circle cx="0.5" cy="49.5" r="0.5" fill="black"/>
<circle cx="7.5" cy="49.5" r="0.5" fill="black"/>
<circle cx="14.5" cy="49.5" r="0.5" fill="black"/>
<circle cx="21.5" cy="49.5" r="0.5" fill="black"/>
<circle cx="28.5" cy="49.5" r="0.5" fill="black"/>
<circle cx="35.5" cy="49.5" r="0.5" fill="black"/>
<circle cx="42.5" cy="49.5" r="0.5" fill="black"/>
<circle cx="49.5" cy="49.5" r="0.5" fill="black"/>
<circle cx="56.5" cy="49.5" r="0.5" fill="black"/>
<circle cx="63.5" cy="49.5" r="0.5" fill="black"/>
<circle cx="70.5" cy="49.5" r="0.5" fill="black"/>
<circle cx="77.5" cy="49.5" r="0.5" fill="black"/>
<circle cx="84.5" cy="49.5" r="0.5" fill="black"/>
<circle cx="91.5" cy="49.5" r="0.5" fill="black"/>
<circle cx="98.5" cy="49.5" r="0.5" fill="black"/>
<circle cx="0.5" cy="56.5" r="0.5" fill="black"/>
<circle cx="7.5" cy="56.5" r="0.5" fill="black"/>
<circle cx="14.5" cy="56.5" r="0.5" fill="black"/>
<circle cx="21.5" cy="56.5" r="0.5" fill="black"/>
<circle cx="28.5" cy="56.5" r="0.5" fill="black"/>
<circle cx="35.5" cy="56.5" r="0.5" fill="black"/>
<circle cx="42.5" cy="56.5" r="0.5" fill="black"/>
<circle cx="49.5" cy="56.5" r="0.5" fill="black"/>
<circle cx="56.5" cy="56.5" r="0.5" fill="black"/>
<circle cx="63.5" cy="56.5" r="0.5" fill="black"/>
<circle cx="70.5" cy="56.5" r="0.5" fill="black"/>
<circle cx="77.5" cy="56.5" r="0.5" fill="black"/>
<circle cx="84.5" cy="56.5" r="0.5" fill="black"/>
<circle cx="91.5" cy="56.5" r="0.5" fill="black"/>
<circle cx="98.5" cy="56.5" r="0.5" fill="black"/>
<circle cx="0.5" cy="63.5" r="0.5" fill="black"/>
<circle cx="7.5" cy="63.5" r="0.5" fill="black"/>
<circle cx="14.5" cy="63.5" r="0.5" fill="black"/>
<circle cx="21.5" cy="63.5" r="0.5" fill="black"/>
<circle cx="28.5" cy="63.5" r="0.5" fill="black"/>
<circle cx="35.5" cy="63.5" r="0.5" fill="black"/>
<circle cx="42.5" cy="63.5" r="0.5" fill="black"/>
<circle cx="49.5" cy="63.5" r="0.5" fill="black"/>
<circle cx="56.5" cy="63.5" r="0.5" fill="black"/>
<circle cx="63.5" cy="63.5" r="0.5" fill="black"/>
<circle cx="70.5" cy="63.5" r="0.5" fill="black"/>
<circle cx="77.5" cy="63.5" r="0.5" fill="black"/>
<circle cx="84.5" cy="63.5" r="0.5" fill="black"/>
<circle cx="91.5" cy="63.5" r="0.5" fill="black"/>
<circle cx="98.5" cy="63.5" r="0.5" fill="black"/>
<circle cx="0.5" cy="70.5" r="0.5" fill="black"/>
<circle cx="7.5" cy="70.5" r="0.5" fill="black"/>
<circle cx="14.5" cy="70.5" r="0.5" fill="black"/>
<circle cx="21.5" cy="70.5" r="0.5" fill="black"/>
<circle cx="28.5" cy="70.5" r="0.5" fill="black"/>
<circle cx="35.5" cy="70.5" r="0.5" fill="black"/>
<circle cx="42.5" cy="70.5" r="0.5" fill="black"/>
<circle cx="49.5" cy="70.5" r="0.5" fill="black"/>
<circle cx="56.5" cy="70.5" r="0.5" fill="black"/>
<circle cx="63.5" cy="70.5" r="0.5" fill="black"/>
<circle cx="70.5" cy="70.5" r="0.5" fill="black"/>
<circle cx="77.5" cy="70.5" r="0.5" fill="black"/>
<circle cx="84.5" cy="70.5" r="0.5" fill="black"/>
<circle cx="91.5" cy="70.5" r="0.5" fill="black"/>
<circle cx="98.5" cy="70.5" r="0.5" fill="black"/>
<circle cx="0.5" cy="77.5" r="0.5" fill="black"/>
<circle cx="7.5" cy="77.5" r="0.5" fill="black"/>
<circle cx="14.5" cy="77.5" r="0.5" fill="black"/>
<circle cx="21.5" cy="77.5" r="0.5" fill="black"/>
<circle cx="28.5" cy="77.5" r="0.5" fill="black"/>
<circle cx="35.5" cy="77.5" r="0.5" fill="black"/>
<circle cx="42.5" cy="77.5" r="0.5" fill="black"/>
<circle cx="49.5" cy="77.5" r="0.5" fill="black"/>
<circle cx="56.5" cy="77.5" r="0.5" fill="black"/>
<circle cx="63.5" cy="77.5" r="0.5" fill="black"/>
<circle cx="70.5" cy="77.5" r="0.5" fill="black"/>
<circle cx="77.5" cy="77.5" r="0.5" fill="black"/>
<circle cx="84.5" cy="77.5" r="0.5" fill="black"/>
<circle cx="91.5" cy="77.5" r="0.5" fill="black"/>
<circle cx="98.5" cy="77.5" r="0.5" fill="black"/>
<circle cx="0.5" cy="84.5" r="0.5" fill="black"/>
<circle cx="7.5" cy="84.5" r="0.5" fill="black"/>
<circle cx="14.5" cy="84.5" r="0.5" fill="black"/>
<circle cx="21.5" cy="84.5" r="0.5" fill="black"/>
<circle cx="28.5" cy="84.5" r="0.5" fill="black"/>
<circle cx="35.5" cy="84.5" r="0.5" fill="black"/>
<circle cx="42.5" cy="84.5" r="0.5" fill="black"/>
<circle cx="49.5" cy="84.5" r="0.5" fill="black"/>
<circle cx="56.5" cy="84.5" r="0.5" fill="black"/>
<circle cx="63.5" cy="84.5" r="0.5" fill="black"/>
<circle cx="70.5" cy="84.5" r="0.5" fill="black"/>
<circle cx="77.5" cy="84.5" r="0.5" fill="black"/>
<circle cx="84.5" cy="84.5" r="0.5" fill="black"/>
<circle cx="91.5" cy="84.5" r="0.5" fill="black"/>
<circle cx="98.5" cy="84.5" r="0.5" fill="black"/>
<circle cx="0.5" cy="91.5" r="0.5" fill="black"/>
<circle cx="7.5" cy="91.5" r="0.5" fill="black"/>
<circle cx="14.5" cy="91.5" r="0.5" fill="black"/>
<circle cx="21.5" cy="91.5" r="0.5" fill="black"/>
<circle cx="28.5" cy="91.5" r="0.5" fill="black"/>
<circle cx="35.5" cy="91.5" r="0.5" fill="black"/>
<circle cx="42.5" cy="91.5" r="0.5" fill="black"/>
<circle cx="49.5" cy="91.5" r="0.5" fill="black"/>
<circle cx="56.5" cy="91.5" r="0.5" fill="black"/>
<circle cx="63.5" cy="91.5" r="0.5" fill="black"/>
<circle cx="70.5" cy="91.5" r="0.5" fill="black"/>
<circle cx="77.5" cy="91.5" r="0.5" fill="black"/>
<circle cx="84.5" cy="91.5" r="0.5" fill="black"/>
<circle cx="91.5" cy="91.5" r="0.5" fill="black"/>
<circle cx="98.5" cy="91.5" r="0.5" fill="black"/>
<circle cx="0.5" cy="98.5" r="0.5" fill="black"/>
<circle cx="7.5" cy="98.5" r="0.5" fill="black"/>
<circle cx="14.5" cy="98.5" r="0.5" fill="black"/>
<circle cx="21.5" cy="98.5" r="0.5" fill="black"/>
<circle cx="28.5" cy="98.5" r="0.5" fill="black"/>
<circle cx="35.5" cy="98.5" r="0.5" fill="black"/>
<circle cx="42.5" cy="98.5" r="0.5" fill="black"/>
<circle cx="49.5" cy="98.5" r="0.5" fill="black"/>
<circle cx="56.5" cy="98.5" r="0.5" fill="black"/>
<circle cx="63.5" cy="98.5" r="0.5" fill="black"/>
<circle cx="70.5" cy="98.5" r="0.5" fill="black"/>
<circle cx="77.5" cy="98.5" r="0.5" fill="black"/>
<circle cx="84.5" cy="98.5" r="0.5" fill="black"/>
<circle cx="91.5" cy="98.5" r="0.5" fill="black"/>
<circle cx="98.5" cy="98.5" r="0.5" fill="black"/>
</svg>
