<svg width="1022" height="40" viewBox="0 0 1022 40" fill="none" xmlns="http://www.w3.org/2000/svg">
<g clip-path="url(#clip0_67_277)">
<circle cx="1.5" cy="1.5" r="1.5" fill="#757575"/>
<circle cx="16.5" cy="1.5" r="1.5" fill="#757575"/>
<circle cx="31.5" cy="1.5" r="1.5" fill="#757575"/>
<circle cx="46.5" cy="1.5" r="1.5" fill="#757575"/>
<circle cx="61.5" cy="1.5" r="1.5" fill="#757575"/>
<circle cx="76.5" cy="1.5" r="1.5" fill="#757575"/>
<circle cx="91.5" cy="1.5" r="1.5" fill="#757575"/>
<circle cx="106.5" cy="1.5" r="1.5" fill="#757575"/>
<circle cx="121.5" cy="1.5" r="1.5" fill="#757575"/>
<circle cx="136.5" cy="1.5" r="1.5" fill="#757575"/>
<circle cx="151.5" cy="1.5" r="1.5" fill="#757575"/>
<circle cx="166.5" cy="1.5" r="1.5" fill="#757575"/>
<circle cx="181.5" cy="1.5" r="1.5" fill="#757575"/>
<circle cx="196.5" cy="1.5" r="1.5" fill="#757575"/>
<circle cx="211.5" cy="1.5" r="1.5" fill="#757575"/>
<circle cx="226.5" cy="1.5" r="1.5" fill="#757575"/>
<circle cx="241.5" cy="1.5" r="1.5" fill="#757575"/>
<circle cx="256.5" cy="1.5" r="1.5" fill="#757575"/>
<circle cx="271.5" cy="1.5" r="1.5" fill="#757575"/>
<circle cx="286.5" cy="1.5" r="1.5" fill="#757575"/>
<circle cx="301.5" cy="1.5" r="1.5" fill="#757575"/>
<circle cx="316.5" cy="1.5" r="1.5" fill="#757575"/>
<circle cx="331.5" cy="1.5" r="1.5" fill="#757575"/>
<circle cx="346.5" cy="1.5" r="1.5" fill="#757575"/>
<circle cx="361.5" cy="1.5" r="1.5" fill="#757575"/>
<circle cx="376.5" cy="1.5" r="1.5" fill="#757575"/>
<circle cx="391.5" cy="1.5" r="1.5" fill="#757575"/>
<circle cx="406.5" cy="1.5" r="1.5" fill="#757575"/>
<circle cx="421.5" cy="1.5" r="1.5" fill="#757575"/>
<circle cx="436.5" cy="1.5" r="1.5" fill="#757575"/>
<circle cx="451.5" cy="1.5" r="1.5" fill="#757575"/>
<circle cx="466.5" cy="1.5" r="1.5" fill="#757575"/>
<circle cx="481.5" cy="1.5" r="1.5" fill="#757575"/>
<circle cx="496.5" cy="1.5" r="1.5" fill="#757575"/>
<circle cx="1.5" cy="16.5" r="1.5" fill="#757575"/>
<circle cx="16.5" cy="16.5" r="1.5" fill="#757575"/>
<circle cx="31.5" cy="16.5" r="1.5" fill="#757575"/>
<circle cx="46.5" cy="16.5" r="1.5" fill="#757575"/>
<circle cx="61.5" cy="16.5" r="1.5" fill="#757575"/>
<circle cx="76.5" cy="16.5" r="1.5" fill="#757575"/>
<circle cx="91.5" cy="16.5" r="1.5" fill="#757575"/>
<circle cx="106.5" cy="16.5" r="1.5" fill="#757575"/>
<circle cx="121.5" cy="16.5" r="1.5" fill="#757575"/>
<circle cx="136.5" cy="16.5" r="1.5" fill="#757575"/>
<circle cx="151.5" cy="16.5" r="1.5" fill="#757575"/>
<circle cx="166.5" cy="16.5" r="1.5" fill="#757575"/>
<circle cx="181.5" cy="16.5" r="1.5" fill="#757575"/>
<circle cx="196.5" cy="16.5" r="1.5" fill="#757575"/>
<circle cx="211.5" cy="16.5" r="1.5" fill="#757575"/>
<circle cx="226.5" cy="16.5" r="1.5" fill="#757575"/>
<circle cx="241.5" cy="16.5" r="1.5" fill="#757575"/>
<circle cx="256.5" cy="16.5" r="1.5" fill="#757575"/>
<circle cx="271.5" cy="16.5" r="1.5" fill="#757575"/>
<circle cx="286.5" cy="16.5" r="1.5" fill="#757575"/>
<circle cx="301.5" cy="16.5" r="1.5" fill="#757575"/>
<circle cx="316.5" cy="16.5" r="1.5" fill="#757575"/>
<circle cx="331.5" cy="16.5" r="1.5" fill="#757575"/>
<circle cx="346.5" cy="16.5" r="1.5" fill="#757575"/>
<circle cx="361.5" cy="16.5" r="1.5" fill="#757575"/>
<circle cx="376.5" cy="16.5" r="1.5" fill="#757575"/>
<circle cx="391.5" cy="16.5" r="1.5" fill="#757575"/>
<circle cx="406.5" cy="16.5" r="1.5" fill="#757575"/>
<circle cx="421.5" cy="16.5" r="1.5" fill="#757575"/>
<circle cx="436.5" cy="16.5" r="1.5" fill="#757575"/>
<circle cx="451.5" cy="16.5" r="1.5" fill="#757575"/>
<circle cx="466.5" cy="16.5" r="1.5" fill="#757575"/>
<circle cx="481.5" cy="16.5" r="1.5" fill="#757575"/>
<circle cx="496.5" cy="16.5" r="1.5" fill="#757575"/>
<circle cx="1.5" cy="31.5" r="1.5" fill="#757575"/>
<circle cx="16.5" cy="31.5" r="1.5" fill="#757575"/>
<circle cx="31.5" cy="31.5" r="1.5" fill="#757575"/>
<circle cx="46.5" cy="31.5" r="1.5" fill="#757575"/>
<circle cx="61.5" cy="31.5" r="1.5" fill="#757575"/>
<circle cx="76.5" cy="31.5" r="1.5" fill="#757575"/>
<circle cx="91.5" cy="31.5" r="1.5" fill="#757575"/>
<circle cx="106.5" cy="31.5" r="1.5" fill="#757575"/>
<circle cx="121.5" cy="31.5" r="1.5" fill="#757575"/>
<circle cx="136.5" cy="31.5" r="1.5" fill="#757575"/>
<circle cx="151.5" cy="31.5" r="1.5" fill="#757575"/>
<circle cx="166.5" cy="31.5" r="1.5" fill="#757575"/>
<circle cx="181.5" cy="31.5" r="1.5" fill="#757575"/>
<circle cx="196.5" cy="31.5" r="1.5" fill="#757575"/>
<circle cx="211.5" cy="31.5" r="1.5" fill="#757575"/>
<circle cx="226.5" cy="31.5" r="1.5" fill="#757575"/>
<circle cx="241.5" cy="31.5" r="1.5" fill="#757575"/>
<circle cx="256.5" cy="31.5" r="1.5" fill="#757575"/>
<circle cx="271.5" cy="31.5" r="1.5" fill="#757575"/>
<circle cx="286.5" cy="31.5" r="1.5" fill="#757575"/>
<circle cx="301.5" cy="31.5" r="1.5" fill="#757575"/>
<circle cx="316.5" cy="31.5" r="1.5" fill="#757575"/>
<circle cx="331.5" cy="31.5" r="1.5" fill="#757575"/>
<circle cx="346.5" cy="31.5" r="1.5" fill="#757575"/>
<circle cx="361.5" cy="31.5" r="1.5" fill="#757575"/>
<circle cx="376.5" cy="31.5" r="1.5" fill="#757575"/>
<circle cx="391.5" cy="31.5" r="1.5" fill="#757575"/>
<circle cx="406.5" cy="31.5" r="1.5" fill="#757575"/>
<circle cx="421.5" cy="31.5" r="1.5" fill="#757575"/>
<circle cx="436.5" cy="31.5" r="1.5" fill="#757575"/>
<circle cx="451.5" cy="31.5" r="1.5" fill="#757575"/>
<circle cx="466.5" cy="31.5" r="1.5" fill="#757575"/>
<circle cx="481.5" cy="31.5" r="1.5" fill="#757575"/>
<circle cx="496.5" cy="31.5" r="1.5" fill="#757575"/>
</g>
<g clip-path="url(#clip1_67_277)">
<g clip-path="url(#clip2_67_277)">
<circle cx="517.559" cy="1.5" r="1.5" fill="#757575"/>
<circle cx="532.559" cy="1.5" r="1.5" fill="#757575"/>
<circle cx="547.559" cy="1.5" r="1.5" fill="#757575"/>
<circle cx="562.559" cy="1.5" r="1.5" fill="#757575"/>
<circle cx="577.559" cy="1.5" r="1.5" fill="#757575"/>
<circle cx="592.559" cy="1.5" r="1.5" fill="#757575"/>
<circle cx="607.559" cy="1.5" r="1.5" fill="#757575"/>
<circle cx="622.559" cy="1.5" r="1.5" fill="#757575"/>
<circle cx="637.559" cy="1.5" r="1.5" fill="#757575"/>
<circle cx="652.559" cy="1.5" r="1.5" fill="#757575"/>
<circle cx="667.559" cy="1.5" r="1.5" fill="#757575"/>
<circle cx="682.559" cy="1.5" r="1.5" fill="#757575"/>
<circle cx="697.559" cy="1.5" r="1.5" fill="#757575"/>
<circle cx="712.559" cy="1.5" r="1.5" fill="#757575"/>
<circle cx="727.559" cy="1.5" r="1.5" fill="#757575"/>
<circle cx="742.559" cy="1.5" r="1.5" fill="#757575"/>
<circle cx="757.559" cy="1.5" r="1.5" fill="#757575"/>
<circle cx="772.559" cy="1.5" r="1.5" fill="#757575"/>
<circle cx="787.559" cy="1.5" r="1.5" fill="#757575"/>
<circle cx="802.559" cy="1.5" r="1.5" fill="#757575"/>
<circle cx="817.559" cy="1.5" r="1.5" fill="#757575"/>
<circle cx="832.559" cy="1.5" r="1.5" fill="#757575"/>
<circle cx="847.559" cy="1.5" r="1.5" fill="#757575"/>
<circle cx="862.559" cy="1.5" r="1.5" fill="#757575"/>
<circle cx="877.559" cy="1.5" r="1.5" fill="#757575"/>
<circle cx="892.559" cy="1.5" r="1.5" fill="#757575"/>
<circle cx="907.559" cy="1.5" r="1.5" fill="#757575"/>
<circle cx="922.559" cy="1.5" r="1.5" fill="#757575"/>
<circle cx="937.559" cy="1.5" r="1.5" fill="#757575"/>
<circle cx="952.559" cy="1.5" r="1.5" fill="#757575"/>
<circle cx="967.559" cy="1.5" r="1.5" fill="#757575"/>
<circle cx="982.559" cy="1.5" r="1.5" fill="#757575"/>
<circle cx="997.559" cy="1.5" r="1.5" fill="#757575"/>
<circle cx="1012.56" cy="1.5" r="1.5" fill="#757575"/>
</g>
<g clip-path="url(#clip3_67_277)">
<circle cx="517.559" cy="16.5" r="1.5" fill="#757575"/>
<circle cx="532.559" cy="16.5" r="1.5" fill="#757575"/>
<circle cx="547.559" cy="16.5" r="1.5" fill="#757575"/>
<circle cx="562.559" cy="16.5" r="1.5" fill="#757575"/>
<circle cx="577.559" cy="16.5" r="1.5" fill="#757575"/>
<circle cx="592.559" cy="16.5" r="1.5" fill="#757575"/>
<circle cx="607.559" cy="16.5" r="1.5" fill="#757575"/>
<circle cx="622.559" cy="16.5" r="1.5" fill="#757575"/>
<circle cx="637.559" cy="16.5" r="1.5" fill="#757575"/>
<circle cx="652.559" cy="16.5" r="1.5" fill="#757575"/>
<circle cx="667.559" cy="16.5" r="1.5" fill="#757575"/>
<circle cx="682.559" cy="16.5" r="1.5" fill="#757575"/>
<circle cx="697.559" cy="16.5" r="1.5" fill="#757575"/>
<circle cx="712.559" cy="16.5" r="1.5" fill="#757575"/>
<circle cx="727.559" cy="16.5" r="1.5" fill="#757575"/>
<circle cx="742.559" cy="16.5" r="1.5" fill="#757575"/>
<circle cx="757.559" cy="16.5" r="1.5" fill="#757575"/>
<circle cx="772.559" cy="16.5" r="1.5" fill="#757575"/>
<circle cx="787.559" cy="16.5" r="1.5" fill="#757575"/>
<circle cx="802.559" cy="16.5" r="1.5" fill="#757575"/>
<circle cx="817.559" cy="16.5" r="1.5" fill="#757575"/>
<circle cx="832.559" cy="16.5" r="1.5" fill="#757575"/>
<circle cx="847.559" cy="16.5" r="1.5" fill="#757575"/>
<circle cx="862.559" cy="16.5" r="1.5" fill="#757575"/>
<circle cx="877.559" cy="16.5" r="1.5" fill="#757575"/>
<circle cx="892.559" cy="16.5" r="1.5" fill="#757575"/>
<circle cx="907.559" cy="16.5" r="1.5" fill="#757575"/>
<circle cx="922.559" cy="16.5" r="1.5" fill="#757575"/>
<circle cx="937.559" cy="16.5" r="1.5" fill="#757575"/>
<circle cx="952.559" cy="16.5" r="1.5" fill="#757575"/>
<circle cx="967.559" cy="16.5" r="1.5" fill="#757575"/>
<circle cx="982.559" cy="16.5" r="1.5" fill="#757575"/>
<circle cx="997.559" cy="16.5" r="1.5" fill="#757575"/>
<circle cx="1012.56" cy="16.5" r="1.5" fill="#757575"/>
</g>
<g clip-path="url(#clip4_67_277)">
<circle cx="517.559" cy="31.5" r="1.5" fill="#757575"/>
<circle cx="532.559" cy="31.5" r="1.5" fill="#757575"/>
<circle cx="547.559" cy="31.5" r="1.5" fill="#757575"/>
<circle cx="562.559" cy="31.5" r="1.5" fill="#757575"/>
<circle cx="577.559" cy="31.5" r="1.5" fill="#757575"/>
<circle cx="592.559" cy="31.5" r="1.5" fill="#757575"/>
<circle cx="607.559" cy="31.5" r="1.5" fill="#757575"/>
<circle cx="622.559" cy="31.5" r="1.5" fill="#757575"/>
<circle cx="637.559" cy="31.5" r="1.5" fill="#757575"/>
<circle cx="652.559" cy="31.5" r="1.5" fill="#757575"/>
<circle cx="667.559" cy="31.5" r="1.5" fill="#757575"/>
<circle cx="682.559" cy="31.5" r="1.5" fill="#757575"/>
<circle cx="697.559" cy="31.5" r="1.5" fill="#757575"/>
<circle cx="712.559" cy="31.5" r="1.5" fill="#757575"/>
<circle cx="727.559" cy="31.5" r="1.5" fill="#757575"/>
<circle cx="742.559" cy="31.5" r="1.5" fill="#757575"/>
<circle cx="757.559" cy="31.5" r="1.5" fill="#757575"/>
<circle cx="772.559" cy="31.5" r="1.5" fill="#757575"/>
<circle cx="787.559" cy="31.5" r="1.5" fill="#757575"/>
<circle cx="802.559" cy="31.5" r="1.5" fill="#757575"/>
<circle cx="817.559" cy="31.5" r="1.5" fill="#757575"/>
<circle cx="832.559" cy="31.5" r="1.5" fill="#757575"/>
<circle cx="847.559" cy="31.5" r="1.5" fill="#757575"/>
<circle cx="862.559" cy="31.5" r="1.5" fill="#757575"/>
<circle cx="877.559" cy="31.5" r="1.5" fill="#757575"/>
<circle cx="892.559" cy="31.5" r="1.5" fill="#757575"/>
<circle cx="907.559" cy="31.5" r="1.5" fill="#757575"/>
<circle cx="922.559" cy="31.5" r="1.5" fill="#757575"/>
<circle cx="937.559" cy="31.5" r="1.5" fill="#757575"/>
<circle cx="952.559" cy="31.5" r="1.5" fill="#757575"/>
<circle cx="967.559" cy="31.5" r="1.5" fill="#757575"/>
<circle cx="982.559" cy="31.5" r="1.5" fill="#757575"/>
<circle cx="997.559" cy="31.5" r="1.5" fill="#757575"/>
<circle cx="1012.56" cy="31.5" r="1.5" fill="#757575"/>
</g>
</g>
<defs>
<clipPath id="clip0_67_277">
<rect width="505.941" height="40" fill="white"/>
</clipPath>
<clipPath id="clip1_67_277">
<rect width="505.941" height="40" fill="white" transform="translate(516.059)"/>
</clipPath>
<clipPath id="clip2_67_277">
<rect width="500" height="15" fill="white" transform="translate(516.059)"/>
</clipPath>
<clipPath id="clip3_67_277">
<rect width="500" height="15" fill="white" transform="translate(516.059 15)"/>
</clipPath>
<clipPath id="clip4_67_277">
<rect width="500" height="15" fill="white" transform="translate(516.059 30)"/>
</clipPath>
</defs>
</svg>
