<svg width="600" height="600" viewBox="0 0 600 600" fill="none" xmlns="http://www.w3.org/2000/svg">
<g clip-path="url(#clip0_61_363)">
<circle cx="1" cy="1" r="1" fill="#757575"/>
<circle cx="23" cy="1" r="1" fill="#757575"/>
<circle cx="45" cy="1" r="1" fill="#757575"/>
<circle cx="67" cy="1" r="1" fill="#757575"/>
<circle cx="89" cy="1" r="1" fill="#757575"/>
<circle cx="111" cy="1" r="1" fill="#757575"/>
<circle cx="133" cy="1" r="1" fill="#757575"/>
<circle cx="155" cy="1" r="1" fill="#757575"/>
<circle cx="177" cy="1" r="1" fill="#757575"/>
<circle cx="199" cy="1" r="1" fill="#757575"/>
<circle cx="221" cy="1" r="1" fill="#757575"/>
<circle cx="243" cy="1" r="1" fill="#757575"/>
<circle cx="265" cy="1" r="1" fill="#757575"/>
<circle cx="287" cy="1" r="1" fill="#757575"/>
<circle cx="309" cy="1" r="1" fill="#757575"/>
<circle cx="331" cy="1" r="1" fill="#757575"/>
<circle cx="353" cy="1" r="1" fill="#757575"/>
<circle cx="375" cy="1" r="1" fill="#757575"/>
<circle cx="397" cy="1" r="1" fill="#757575"/>
<circle cx="419" cy="1" r="1" fill="#757575"/>
<circle cx="441" cy="1" r="1" fill="#757575"/>
<circle cx="463" cy="1" r="1" fill="#757575"/>
<circle cx="485" cy="1" r="1" fill="#757575"/>
<circle cx="507" cy="1" r="1" fill="#757575"/>
<circle cx="529" cy="1" r="1" fill="#757575"/>
<circle cx="551" cy="1" r="1" fill="#757575"/>
<circle cx="573" cy="1" r="1" fill="#757575"/>
<circle cx="595" cy="1" r="1" fill="#757575"/>
<circle cx="1" cy="23" r="1" fill="#757575"/>
<circle cx="23" cy="23" r="1" fill="#757575"/>
<circle cx="45" cy="23" r="1" fill="#757575"/>
<circle cx="67" cy="23" r="1" fill="#757575"/>
<circle cx="89" cy="23" r="1" fill="#757575"/>
<circle cx="111" cy="23" r="1" fill="#757575"/>
<circle cx="133" cy="23" r="1" fill="#757575"/>
<circle cx="155" cy="23" r="1" fill="#757575"/>
<circle cx="177" cy="23" r="1" fill="#757575"/>
<circle cx="199" cy="23" r="1" fill="#757575"/>
<circle cx="221" cy="23" r="1" fill="#757575"/>
<circle cx="243" cy="23" r="1" fill="#757575"/>
<circle cx="265" cy="23" r="1" fill="#757575"/>
<circle cx="287" cy="23" r="1" fill="#757575"/>
<circle cx="309" cy="23" r="1" fill="#757575"/>
<circle cx="331" cy="23" r="1" fill="#757575"/>
<circle cx="353" cy="23" r="1" fill="#757575"/>
<circle cx="375" cy="23" r="1" fill="#757575"/>
<circle cx="397" cy="23" r="1" fill="#757575"/>
<circle cx="419" cy="23" r="1" fill="#757575"/>
<circle cx="441" cy="23" r="1" fill="#757575"/>
<circle cx="463" cy="23" r="1" fill="#757575"/>
<circle cx="485" cy="23" r="1" fill="#757575"/>
<circle cx="507" cy="23" r="1" fill="#757575"/>
<circle cx="529" cy="23" r="1" fill="#757575"/>
<circle cx="551" cy="23" r="1" fill="#757575"/>
<circle cx="573" cy="23" r="1" fill="#757575"/>
<circle cx="595" cy="23" r="1" fill="#757575"/>
<circle cx="1" cy="45" r="1" fill="#757575"/>
<circle cx="23" cy="45" r="1" fill="#757575"/>
<circle cx="45" cy="45" r="1" fill="#757575"/>
<circle cx="67" cy="45" r="1" fill="#757575"/>
<circle cx="89" cy="45" r="1" fill="#757575"/>
<circle cx="111" cy="45" r="1" fill="#757575"/>
<circle cx="133" cy="45" r="1" fill="#757575"/>
<circle cx="155" cy="45" r="1" fill="#757575"/>
<circle cx="177" cy="45" r="1" fill="#757575"/>
<circle cx="199" cy="45" r="1" fill="#757575"/>
<circle cx="221" cy="45" r="1" fill="#757575"/>
<circle cx="243" cy="45" r="1" fill="#757575"/>
<circle cx="265" cy="45" r="1" fill="#757575"/>
<circle cx="287" cy="45" r="1" fill="#757575"/>
<circle cx="309" cy="45" r="1" fill="#757575"/>
<circle cx="331" cy="45" r="1" fill="#757575"/>
<circle cx="353" cy="45" r="1" fill="#757575"/>
<circle cx="375" cy="45" r="1" fill="#757575"/>
<circle cx="397" cy="45" r="1" fill="#757575"/>
<circle cx="419" cy="45" r="1" fill="#757575"/>
<circle cx="441" cy="45" r="1" fill="#757575"/>
<circle cx="463" cy="45" r="1" fill="#757575"/>
<circle cx="485" cy="45" r="1" fill="#757575"/>
<circle cx="507" cy="45" r="1" fill="#757575"/>
<circle cx="529" cy="45" r="1" fill="#757575"/>
<circle cx="551" cy="45" r="1" fill="#757575"/>
<circle cx="573" cy="45" r="1" fill="#757575"/>
<circle cx="595" cy="45" r="1" fill="#757575"/>
<circle cx="1" cy="67" r="1" fill="#757575"/>
<circle cx="23" cy="67" r="1" fill="#757575"/>
<circle cx="45" cy="67" r="1" fill="#757575"/>
<circle cx="67" cy="67" r="1" fill="#757575"/>
<circle cx="89" cy="67" r="1" fill="#757575"/>
<circle cx="111" cy="67" r="1" fill="#757575"/>
<circle cx="133" cy="67" r="1" fill="#757575"/>
<circle cx="155" cy="67" r="1" fill="#757575"/>
<circle cx="177" cy="67" r="1" fill="#757575"/>
<circle cx="199" cy="67" r="1" fill="#757575"/>
<circle cx="221" cy="67" r="1" fill="#757575"/>
<circle cx="243" cy="67" r="1" fill="#757575"/>
<circle cx="265" cy="67" r="1" fill="#757575"/>
<circle cx="287" cy="67" r="1" fill="#757575"/>
<circle cx="309" cy="67" r="1" fill="#757575"/>
<circle cx="331" cy="67" r="1" fill="#757575"/>
<circle cx="353" cy="67" r="1" fill="#757575"/>
<circle cx="375" cy="67" r="1" fill="#757575"/>
<circle cx="397" cy="67" r="1" fill="#757575"/>
<circle cx="419" cy="67" r="1" fill="#757575"/>
<circle cx="441" cy="67" r="1" fill="#757575"/>
<circle cx="463" cy="67" r="1" fill="#757575"/>
<circle cx="485" cy="67" r="1" fill="#757575"/>
<circle cx="507" cy="67" r="1" fill="#757575"/>
<circle cx="529" cy="67" r="1" fill="#757575"/>
<circle cx="551" cy="67" r="1" fill="#757575"/>
<circle cx="573" cy="67" r="1" fill="#757575"/>
<circle cx="595" cy="67" r="1" fill="#757575"/>
<circle cx="1" cy="89" r="1" fill="#757575"/>
<circle cx="23" cy="89" r="1" fill="#757575"/>
<circle cx="45" cy="89" r="1" fill="#757575"/>
<circle cx="67" cy="89" r="1" fill="#757575"/>
<circle cx="89" cy="89" r="1" fill="#757575"/>
<circle cx="111" cy="89" r="1" fill="#757575"/>
<circle cx="133" cy="89" r="1" fill="#757575"/>
<circle cx="155" cy="89" r="1" fill="#757575"/>
<circle cx="177" cy="89" r="1" fill="#757575"/>
<circle cx="199" cy="89" r="1" fill="#757575"/>
<circle cx="221" cy="89" r="1" fill="#757575"/>
<circle cx="243" cy="89" r="1" fill="#757575"/>
<circle cx="265" cy="89" r="1" fill="#757575"/>
<circle cx="287" cy="89" r="1" fill="#757575"/>
<circle cx="309" cy="89" r="1" fill="#757575"/>
<circle cx="331" cy="89" r="1" fill="#757575"/>
<circle cx="353" cy="89" r="1" fill="#757575"/>
<circle cx="375" cy="89" r="1" fill="#757575"/>
<circle cx="397" cy="89" r="1" fill="#757575"/>
<circle cx="419" cy="89" r="1" fill="#757575"/>
<circle cx="441" cy="89" r="1" fill="#757575"/>
<circle cx="463" cy="89" r="1" fill="#757575"/>
<circle cx="485" cy="89" r="1" fill="#757575"/>
<circle cx="507" cy="89" r="1" fill="#757575"/>
<circle cx="529" cy="89" r="1" fill="#757575"/>
<circle cx="551" cy="89" r="1" fill="#757575"/>
<circle cx="573" cy="89" r="1" fill="#757575"/>
<circle cx="595" cy="89" r="1" fill="#757575"/>
<circle cx="1" cy="111" r="1" fill="#757575"/>
<circle cx="23" cy="111" r="1" fill="#757575"/>
<circle cx="45" cy="111" r="1" fill="#757575"/>
<circle cx="67" cy="111" r="1" fill="#757575"/>
<circle cx="89" cy="111" r="1" fill="#757575"/>
<circle cx="111" cy="111" r="1" fill="#757575"/>
<circle cx="133" cy="111" r="1" fill="#757575"/>
<circle cx="155" cy="111" r="1" fill="#757575"/>
<circle cx="177" cy="111" r="1" fill="#757575"/>
<circle cx="199" cy="111" r="1" fill="#757575"/>
<circle cx="221" cy="111" r="1" fill="#757575"/>
<circle cx="243" cy="111" r="1" fill="#757575"/>
<circle cx="265" cy="111" r="1" fill="#757575"/>
<circle cx="287" cy="111" r="1" fill="#757575"/>
<circle cx="309" cy="111" r="1" fill="#757575"/>
<circle cx="331" cy="111" r="1" fill="#757575"/>
<circle cx="353" cy="111" r="1" fill="#757575"/>
<circle cx="375" cy="111" r="1" fill="#757575"/>
<circle cx="397" cy="111" r="1" fill="#757575"/>
<circle cx="419" cy="111" r="1" fill="#757575"/>
<circle cx="441" cy="111" r="1" fill="#757575"/>
<circle cx="463" cy="111" r="1" fill="#757575"/>
<circle cx="485" cy="111" r="1" fill="#757575"/>
<circle cx="507" cy="111" r="1" fill="#757575"/>
<circle cx="529" cy="111" r="1" fill="#757575"/>
<circle cx="551" cy="111" r="1" fill="#757575"/>
<circle cx="573" cy="111" r="1" fill="#757575"/>
<circle cx="595" cy="111" r="1" fill="#757575"/>
<circle cx="1" cy="133" r="1" fill="#757575"/>
<circle cx="23" cy="133" r="1" fill="#757575"/>
<circle cx="45" cy="133" r="1" fill="#757575"/>
<circle cx="67" cy="133" r="1" fill="#757575"/>
<circle cx="89" cy="133" r="1" fill="#757575"/>
<circle cx="111" cy="133" r="1" fill="#757575"/>
<circle cx="133" cy="133" r="1" fill="#757575"/>
<circle cx="155" cy="133" r="1" fill="#757575"/>
<circle cx="177" cy="133" r="1" fill="#757575"/>
<circle cx="199" cy="133" r="1" fill="#757575"/>
<circle cx="221" cy="133" r="1" fill="#757575"/>
<circle cx="243" cy="133" r="1" fill="#757575"/>
<circle cx="265" cy="133" r="1" fill="#757575"/>
<circle cx="287" cy="133" r="1" fill="#757575"/>
<circle cx="309" cy="133" r="1" fill="#757575"/>
<circle cx="331" cy="133" r="1" fill="#757575"/>
<circle cx="353" cy="133" r="1" fill="#757575"/>
<circle cx="375" cy="133" r="1" fill="#757575"/>
<circle cx="397" cy="133" r="1" fill="#757575"/>
<circle cx="419" cy="133" r="1" fill="#757575"/>
<circle cx="441" cy="133" r="1" fill="#757575"/>
<circle cx="463" cy="133" r="1" fill="#757575"/>
<circle cx="485" cy="133" r="1" fill="#757575"/>
<circle cx="507" cy="133" r="1" fill="#757575"/>
<circle cx="529" cy="133" r="1" fill="#757575"/>
<circle cx="551" cy="133" r="1" fill="#757575"/>
<circle cx="573" cy="133" r="1" fill="#757575"/>
<circle cx="595" cy="133" r="1" fill="#757575"/>
<circle cx="1" cy="155" r="1" fill="#757575"/>
<circle cx="23" cy="155" r="1" fill="#757575"/>
<circle cx="45" cy="155" r="1" fill="#757575"/>
<circle cx="67" cy="155" r="1" fill="#757575"/>
<circle cx="89" cy="155" r="1" fill="#757575"/>
<circle cx="111" cy="155" r="1" fill="#757575"/>
<circle cx="133" cy="155" r="1" fill="#757575"/>
<circle cx="155" cy="155" r="1" fill="#757575"/>
<circle cx="177" cy="155" r="1" fill="#757575"/>
<circle cx="199" cy="155" r="1" fill="#757575"/>
<circle cx="221" cy="155" r="1" fill="#757575"/>
<circle cx="243" cy="155" r="1" fill="#757575"/>
<circle cx="265" cy="155" r="1" fill="#757575"/>
<circle cx="287" cy="155" r="1" fill="#757575"/>
<circle cx="309" cy="155" r="1" fill="#757575"/>
<circle cx="331" cy="155" r="1" fill="#757575"/>
<circle cx="353" cy="155" r="1" fill="#757575"/>
<circle cx="375" cy="155" r="1" fill="#757575"/>
<circle cx="397" cy="155" r="1" fill="#757575"/>
<circle cx="419" cy="155" r="1" fill="#757575"/>
<circle cx="441" cy="155" r="1" fill="#757575"/>
<circle cx="463" cy="155" r="1" fill="#757575"/>
<circle cx="485" cy="155" r="1" fill="#757575"/>
<circle cx="507" cy="155" r="1" fill="#757575"/>
<circle cx="529" cy="155" r="1" fill="#757575"/>
<circle cx="551" cy="155" r="1" fill="#757575"/>
<circle cx="573" cy="155" r="1" fill="#757575"/>
<circle cx="595" cy="155" r="1" fill="#757575"/>
<circle cx="1" cy="177" r="1" fill="#757575"/>
<circle cx="23" cy="177" r="1" fill="#757575"/>
<circle cx="45" cy="177" r="1" fill="#757575"/>
<circle cx="67" cy="177" r="1" fill="#757575"/>
<circle cx="89" cy="177" r="1" fill="#757575"/>
<circle cx="111" cy="177" r="1" fill="#757575"/>
<circle cx="133" cy="177" r="1" fill="#757575"/>
<circle cx="155" cy="177" r="1" fill="#757575"/>
<circle cx="177" cy="177" r="1" fill="#757575"/>
<circle cx="199" cy="177" r="1" fill="#757575"/>
<circle cx="221" cy="177" r="1" fill="#757575"/>
<circle cx="243" cy="177" r="1" fill="#757575"/>
<circle cx="265" cy="177" r="1" fill="#757575"/>
<circle cx="287" cy="177" r="1" fill="#757575"/>
<circle cx="309" cy="177" r="1" fill="#757575"/>
<circle cx="331" cy="177" r="1" fill="#757575"/>
<circle cx="353" cy="177" r="1" fill="#757575"/>
<circle cx="375" cy="177" r="1" fill="#757575"/>
<circle cx="397" cy="177" r="1" fill="#757575"/>
<circle cx="419" cy="177" r="1" fill="#757575"/>
<circle cx="441" cy="177" r="1" fill="#757575"/>
<circle cx="463" cy="177" r="1" fill="#757575"/>
<circle cx="485" cy="177" r="1" fill="#757575"/>
<circle cx="507" cy="177" r="1" fill="#757575"/>
<circle cx="529" cy="177" r="1" fill="#757575"/>
<circle cx="551" cy="177" r="1" fill="#757575"/>
<circle cx="573" cy="177" r="1" fill="#757575"/>
<circle cx="595" cy="177" r="1" fill="#757575"/>
<circle cx="1" cy="199" r="1" fill="#757575"/>
<circle cx="23" cy="199" r="1" fill="#757575"/>
<circle cx="45" cy="199" r="1" fill="#757575"/>
<circle cx="67" cy="199" r="1" fill="#757575"/>
<circle cx="89" cy="199" r="1" fill="#757575"/>
<circle cx="111" cy="199" r="1" fill="#757575"/>
<circle cx="133" cy="199" r="1" fill="#757575"/>
<circle cx="155" cy="199" r="1" fill="#757575"/>
<circle cx="177" cy="199" r="1" fill="#757575"/>
<circle cx="199" cy="199" r="1" fill="#757575"/>
<circle cx="221" cy="199" r="1" fill="#757575"/>
<circle cx="243" cy="199" r="1" fill="#757575"/>
<circle cx="265" cy="199" r="1" fill="#757575"/>
<circle cx="287" cy="199" r="1" fill="#757575"/>
<circle cx="309" cy="199" r="1" fill="#757575"/>
<circle cx="331" cy="199" r="1" fill="#757575"/>
<circle cx="353" cy="199" r="1" fill="#757575"/>
<circle cx="375" cy="199" r="1" fill="#757575"/>
<circle cx="397" cy="199" r="1" fill="#757575"/>
<circle cx="419" cy="199" r="1" fill="#757575"/>
<circle cx="441" cy="199" r="1" fill="#757575"/>
<circle cx="463" cy="199" r="1" fill="#757575"/>
<circle cx="485" cy="199" r="1" fill="#757575"/>
<circle cx="507" cy="199" r="1" fill="#757575"/>
<circle cx="529" cy="199" r="1" fill="#757575"/>
<circle cx="551" cy="199" r="1" fill="#757575"/>
<circle cx="573" cy="199" r="1" fill="#757575"/>
<circle cx="595" cy="199" r="1" fill="#757575"/>
<circle cx="1" cy="221" r="1" fill="#757575"/>
<circle cx="23" cy="221" r="1" fill="#757575"/>
<circle cx="45" cy="221" r="1" fill="#757575"/>
<circle cx="67" cy="221" r="1" fill="#757575"/>
<circle cx="89" cy="221" r="1" fill="#757575"/>
<circle cx="111" cy="221" r="1" fill="#757575"/>
<circle cx="133" cy="221" r="1" fill="#757575"/>
<circle cx="155" cy="221" r="1" fill="#757575"/>
<circle cx="177" cy="221" r="1" fill="#757575"/>
<circle cx="199" cy="221" r="1" fill="#757575"/>
<circle cx="221" cy="221" r="1" fill="#757575"/>
<circle cx="243" cy="221" r="1" fill="#757575"/>
<circle cx="265" cy="221" r="1" fill="#757575"/>
<circle cx="287" cy="221" r="1" fill="#757575"/>
<circle cx="309" cy="221" r="1" fill="#757575"/>
<circle cx="331" cy="221" r="1" fill="#757575"/>
<circle cx="353" cy="221" r="1" fill="#757575"/>
<circle cx="375" cy="221" r="1" fill="#757575"/>
<circle cx="397" cy="221" r="1" fill="#757575"/>
<circle cx="419" cy="221" r="1" fill="#757575"/>
<circle cx="441" cy="221" r="1" fill="#757575"/>
<circle cx="463" cy="221" r="1" fill="#757575"/>
<circle cx="485" cy="221" r="1" fill="#757575"/>
<circle cx="507" cy="221" r="1" fill="#757575"/>
<circle cx="529" cy="221" r="1" fill="#757575"/>
<circle cx="551" cy="221" r="1" fill="#757575"/>
<circle cx="573" cy="221" r="1" fill="#757575"/>
<circle cx="595" cy="221" r="1" fill="#757575"/>
<circle cx="1" cy="243" r="1" fill="#757575"/>
<circle cx="23" cy="243" r="1" fill="#757575"/>
<circle cx="45" cy="243" r="1" fill="#757575"/>
<circle cx="67" cy="243" r="1" fill="#757575"/>
<circle cx="89" cy="243" r="1" fill="#757575"/>
<circle cx="111" cy="243" r="1" fill="#757575"/>
<circle cx="133" cy="243" r="1" fill="#757575"/>
<circle cx="155" cy="243" r="1" fill="#757575"/>
<circle cx="177" cy="243" r="1" fill="#757575"/>
<circle cx="199" cy="243" r="1" fill="#757575"/>
<circle cx="221" cy="243" r="1" fill="#757575"/>
<circle cx="243" cy="243" r="1" fill="#757575"/>
<circle cx="265" cy="243" r="1" fill="#757575"/>
<circle cx="287" cy="243" r="1" fill="#757575"/>
<circle cx="309" cy="243" r="1" fill="#757575"/>
<circle cx="331" cy="243" r="1" fill="#757575"/>
<circle cx="353" cy="243" r="1" fill="#757575"/>
<circle cx="375" cy="243" r="1" fill="#757575"/>
<circle cx="397" cy="243" r="1" fill="#757575"/>
<circle cx="419" cy="243" r="1" fill="#757575"/>
<circle cx="441" cy="243" r="1" fill="#757575"/>
<circle cx="463" cy="243" r="1" fill="#757575"/>
<circle cx="485" cy="243" r="1" fill="#757575"/>
<circle cx="507" cy="243" r="1" fill="#757575"/>
<circle cx="529" cy="243" r="1" fill="#757575"/>
<circle cx="551" cy="243" r="1" fill="#757575"/>
<circle cx="573" cy="243" r="1" fill="#757575"/>
<circle cx="595" cy="243" r="1" fill="#757575"/>
<circle cx="1" cy="265" r="1" fill="#757575"/>
<circle cx="23" cy="265" r="1" fill="#757575"/>
<circle cx="45" cy="265" r="1" fill="#757575"/>
<circle cx="67" cy="265" r="1" fill="#757575"/>
<circle cx="89" cy="265" r="1" fill="#757575"/>
<circle cx="111" cy="265" r="1" fill="#757575"/>
<circle cx="133" cy="265" r="1" fill="#757575"/>
<circle cx="155" cy="265" r="1" fill="#757575"/>
<circle cx="177" cy="265" r="1" fill="#757575"/>
<circle cx="199" cy="265" r="1" fill="#757575"/>
<circle cx="221" cy="265" r="1" fill="#757575"/>
<circle cx="243" cy="265" r="1" fill="#757575"/>
<circle cx="265" cy="265" r="1" fill="#757575"/>
<circle cx="287" cy="265" r="1" fill="#757575"/>
<circle cx="309" cy="265" r="1" fill="#757575"/>
<circle cx="331" cy="265" r="1" fill="#757575"/>
<circle cx="353" cy="265" r="1" fill="#757575"/>
<circle cx="375" cy="265" r="1" fill="#757575"/>
<circle cx="397" cy="265" r="1" fill="#757575"/>
<circle cx="419" cy="265" r="1" fill="#757575"/>
<circle cx="441" cy="265" r="1" fill="#757575"/>
<circle cx="463" cy="265" r="1" fill="#757575"/>
<circle cx="485" cy="265" r="1" fill="#757575"/>
<circle cx="507" cy="265" r="1" fill="#757575"/>
<circle cx="529" cy="265" r="1" fill="#757575"/>
<circle cx="551" cy="265" r="1" fill="#757575"/>
<circle cx="573" cy="265" r="1" fill="#757575"/>
<circle cx="595" cy="265" r="1" fill="#757575"/>
<circle cx="1" cy="287" r="1" fill="#757575"/>
<circle cx="23" cy="287" r="1" fill="#757575"/>
<circle cx="45" cy="287" r="1" fill="#757575"/>
<circle cx="67" cy="287" r="1" fill="#757575"/>
<circle cx="89" cy="287" r="1" fill="#757575"/>
<circle cx="111" cy="287" r="1" fill="#757575"/>
<circle cx="133" cy="287" r="1" fill="#757575"/>
<circle cx="155" cy="287" r="1" fill="#757575"/>
<circle cx="177" cy="287" r="1" fill="#757575"/>
<circle cx="199" cy="287" r="1" fill="#757575"/>
<circle cx="221" cy="287" r="1" fill="#757575"/>
<circle cx="243" cy="287" r="1" fill="#757575"/>
<circle cx="265" cy="287" r="1" fill="#757575"/>
<circle cx="287" cy="287" r="1" fill="#757575"/>
<circle cx="309" cy="287" r="1" fill="#757575"/>
<circle cx="331" cy="287" r="1" fill="#757575"/>
<circle cx="353" cy="287" r="1" fill="#757575"/>
<circle cx="375" cy="287" r="1" fill="#757575"/>
<circle cx="397" cy="287" r="1" fill="#757575"/>
<circle cx="419" cy="287" r="1" fill="#757575"/>
<circle cx="441" cy="287" r="1" fill="#757575"/>
<circle cx="463" cy="287" r="1" fill="#757575"/>
<circle cx="485" cy="287" r="1" fill="#757575"/>
<circle cx="507" cy="287" r="1" fill="#757575"/>
<circle cx="529" cy="287" r="1" fill="#757575"/>
<circle cx="551" cy="287" r="1" fill="#757575"/>
<circle cx="573" cy="287" r="1" fill="#757575"/>
<circle cx="595" cy="287" r="1" fill="#757575"/>
<circle cx="1" cy="309" r="1" fill="#757575"/>
<circle cx="23" cy="309" r="1" fill="#757575"/>
<circle cx="45" cy="309" r="1" fill="#757575"/>
<circle cx="67" cy="309" r="1" fill="#757575"/>
<circle cx="89" cy="309" r="1" fill="#757575"/>
<circle cx="111" cy="309" r="1" fill="#757575"/>
<circle cx="133" cy="309" r="1" fill="#757575"/>
<circle cx="155" cy="309" r="1" fill="#757575"/>
<circle cx="177" cy="309" r="1" fill="#757575"/>
<circle cx="199" cy="309" r="1" fill="#757575"/>
<circle cx="221" cy="309" r="1" fill="#757575"/>
<circle cx="243" cy="309" r="1" fill="#757575"/>
<circle cx="265" cy="309" r="1" fill="#757575"/>
<circle cx="287" cy="309" r="1" fill="#757575"/>
<circle cx="309" cy="309" r="1" fill="#757575"/>
<circle cx="331" cy="309" r="1" fill="#757575"/>
<circle cx="353" cy="309" r="1" fill="#757575"/>
<circle cx="375" cy="309" r="1" fill="#757575"/>
<circle cx="397" cy="309" r="1" fill="#757575"/>
<circle cx="419" cy="309" r="1" fill="#757575"/>
<circle cx="441" cy="309" r="1" fill="#757575"/>
<circle cx="463" cy="309" r="1" fill="#757575"/>
<circle cx="485" cy="309" r="1" fill="#757575"/>
<circle cx="507" cy="309" r="1" fill="#757575"/>
<circle cx="529" cy="309" r="1" fill="#757575"/>
<circle cx="551" cy="309" r="1" fill="#757575"/>
<circle cx="573" cy="309" r="1" fill="#757575"/>
<circle cx="595" cy="309" r="1" fill="#757575"/>
<circle cx="1" cy="331" r="1" fill="#757575"/>
<circle cx="23" cy="331" r="1" fill="#757575"/>
<circle cx="45" cy="331" r="1" fill="#757575"/>
<circle cx="67" cy="331" r="1" fill="#757575"/>
<circle cx="89" cy="331" r="1" fill="#757575"/>
<circle cx="111" cy="331" r="1" fill="#757575"/>
<circle cx="133" cy="331" r="1" fill="#757575"/>
<circle cx="155" cy="331" r="1" fill="#757575"/>
<circle cx="177" cy="331" r="1" fill="#757575"/>
<circle cx="199" cy="331" r="1" fill="#757575"/>
<circle cx="221" cy="331" r="1" fill="#757575"/>
<circle cx="243" cy="331" r="1" fill="#757575"/>
<circle cx="265" cy="331" r="1" fill="#757575"/>
<circle cx="287" cy="331" r="1" fill="#757575"/>
<circle cx="309" cy="331" r="1" fill="#757575"/>
<circle cx="331" cy="331" r="1" fill="#757575"/>
<circle cx="353" cy="331" r="1" fill="#757575"/>
<circle cx="375" cy="331" r="1" fill="#757575"/>
<circle cx="397" cy="331" r="1" fill="#757575"/>
<circle cx="419" cy="331" r="1" fill="#757575"/>
<circle cx="441" cy="331" r="1" fill="#757575"/>
<circle cx="463" cy="331" r="1" fill="#757575"/>
<circle cx="485" cy="331" r="1" fill="#757575"/>
<circle cx="507" cy="331" r="1" fill="#757575"/>
<circle cx="529" cy="331" r="1" fill="#757575"/>
<circle cx="551" cy="331" r="1" fill="#757575"/>
<circle cx="573" cy="331" r="1" fill="#757575"/>
<circle cx="595" cy="331" r="1" fill="#757575"/>
<circle cx="1" cy="353" r="1" fill="#757575"/>
<circle cx="23" cy="353" r="1" fill="#757575"/>
<circle cx="45" cy="353" r="1" fill="#757575"/>
<circle cx="67" cy="353" r="1" fill="#757575"/>
<circle cx="89" cy="353" r="1" fill="#757575"/>
<circle cx="111" cy="353" r="1" fill="#757575"/>
<circle cx="133" cy="353" r="1" fill="#757575"/>
<circle cx="155" cy="353" r="1" fill="#757575"/>
<circle cx="177" cy="353" r="1" fill="#757575"/>
<circle cx="199" cy="353" r="1" fill="#757575"/>
<circle cx="221" cy="353" r="1" fill="#757575"/>
<circle cx="243" cy="353" r="1" fill="#757575"/>
<circle cx="265" cy="353" r="1" fill="#757575"/>
<circle cx="287" cy="353" r="1" fill="#757575"/>
<circle cx="309" cy="353" r="1" fill="#757575"/>
<circle cx="331" cy="353" r="1" fill="#757575"/>
<circle cx="353" cy="353" r="1" fill="#757575"/>
<circle cx="375" cy="353" r="1" fill="#757575"/>
<circle cx="397" cy="353" r="1" fill="#757575"/>
<circle cx="419" cy="353" r="1" fill="#757575"/>
<circle cx="441" cy="353" r="1" fill="#757575"/>
<circle cx="463" cy="353" r="1" fill="#757575"/>
<circle cx="485" cy="353" r="1" fill="#757575"/>
<circle cx="507" cy="353" r="1" fill="#757575"/>
<circle cx="529" cy="353" r="1" fill="#757575"/>
<circle cx="551" cy="353" r="1" fill="#757575"/>
<circle cx="573" cy="353" r="1" fill="#757575"/>
<circle cx="595" cy="353" r="1" fill="#757575"/>
<circle cx="1" cy="375" r="1" fill="#757575"/>
<circle cx="23" cy="375" r="1" fill="#757575"/>
<circle cx="45" cy="375" r="1" fill="#757575"/>
<circle cx="67" cy="375" r="1" fill="#757575"/>
<circle cx="89" cy="375" r="1" fill="#757575"/>
<circle cx="111" cy="375" r="1" fill="#757575"/>
<circle cx="133" cy="375" r="1" fill="#757575"/>
<circle cx="155" cy="375" r="1" fill="#757575"/>
<circle cx="177" cy="375" r="1" fill="#757575"/>
<circle cx="199" cy="375" r="1" fill="#757575"/>
<circle cx="221" cy="375" r="1" fill="#757575"/>
<circle cx="243" cy="375" r="1" fill="#757575"/>
<circle cx="265" cy="375" r="1" fill="#757575"/>
<circle cx="287" cy="375" r="1" fill="#757575"/>
<circle cx="309" cy="375" r="1" fill="#757575"/>
<circle cx="331" cy="375" r="1" fill="#757575"/>
<circle cx="353" cy="375" r="1" fill="#757575"/>
<circle cx="375" cy="375" r="1" fill="#757575"/>
<circle cx="397" cy="375" r="1" fill="#757575"/>
<circle cx="419" cy="375" r="1" fill="#757575"/>
<circle cx="441" cy="375" r="1" fill="#757575"/>
<circle cx="463" cy="375" r="1" fill="#757575"/>
<circle cx="485" cy="375" r="1" fill="#757575"/>
<circle cx="507" cy="375" r="1" fill="#757575"/>
<circle cx="529" cy="375" r="1" fill="#757575"/>
<circle cx="551" cy="375" r="1" fill="#757575"/>
<circle cx="573" cy="375" r="1" fill="#757575"/>
<circle cx="595" cy="375" r="1" fill="#757575"/>
<circle cx="1" cy="397" r="1" fill="#757575"/>
<circle cx="23" cy="397" r="1" fill="#757575"/>
<circle cx="45" cy="397" r="1" fill="#757575"/>
<circle cx="67" cy="397" r="1" fill="#757575"/>
<circle cx="89" cy="397" r="1" fill="#757575"/>
<circle cx="111" cy="397" r="1" fill="#757575"/>
<circle cx="133" cy="397" r="1" fill="#757575"/>
<circle cx="155" cy="397" r="1" fill="#757575"/>
<circle cx="177" cy="397" r="1" fill="#757575"/>
<circle cx="199" cy="397" r="1" fill="#757575"/>
<circle cx="221" cy="397" r="1" fill="#757575"/>
<circle cx="243" cy="397" r="1" fill="#757575"/>
<circle cx="265" cy="397" r="1" fill="#757575"/>
<circle cx="287" cy="397" r="1" fill="#757575"/>
<circle cx="309" cy="397" r="1" fill="#757575"/>
<circle cx="331" cy="397" r="1" fill="#757575"/>
<circle cx="353" cy="397" r="1" fill="#757575"/>
<circle cx="375" cy="397" r="1" fill="#757575"/>
<circle cx="397" cy="397" r="1" fill="#757575"/>
<circle cx="419" cy="397" r="1" fill="#757575"/>
<circle cx="441" cy="397" r="1" fill="#757575"/>
<circle cx="463" cy="397" r="1" fill="#757575"/>
<circle cx="485" cy="397" r="1" fill="#757575"/>
<circle cx="507" cy="397" r="1" fill="#757575"/>
<circle cx="529" cy="397" r="1" fill="#757575"/>
<circle cx="551" cy="397" r="1" fill="#757575"/>
<circle cx="573" cy="397" r="1" fill="#757575"/>
<circle cx="595" cy="397" r="1" fill="#757575"/>
<circle cx="1" cy="419" r="1" fill="#757575"/>
<circle cx="23" cy="419" r="1" fill="#757575"/>
<circle cx="45" cy="419" r="1" fill="#757575"/>
<circle cx="67" cy="419" r="1" fill="#757575"/>
<circle cx="89" cy="419" r="1" fill="#757575"/>
<circle cx="111" cy="419" r="1" fill="#757575"/>
<circle cx="133" cy="419" r="1" fill="#757575"/>
<circle cx="155" cy="419" r="1" fill="#757575"/>
<circle cx="177" cy="419" r="1" fill="#757575"/>
<circle cx="199" cy="419" r="1" fill="#757575"/>
<circle cx="221" cy="419" r="1" fill="#757575"/>
<circle cx="243" cy="419" r="1" fill="#757575"/>
<circle cx="265" cy="419" r="1" fill="#757575"/>
<circle cx="287" cy="419" r="1" fill="#757575"/>
<circle cx="309" cy="419" r="1" fill="#757575"/>
<circle cx="331" cy="419" r="1" fill="#757575"/>
<circle cx="353" cy="419" r="1" fill="#757575"/>
<circle cx="375" cy="419" r="1" fill="#757575"/>
<circle cx="397" cy="419" r="1" fill="#757575"/>
<circle cx="419" cy="419" r="1" fill="#757575"/>
<circle cx="441" cy="419" r="1" fill="#757575"/>
<circle cx="463" cy="419" r="1" fill="#757575"/>
<circle cx="485" cy="419" r="1" fill="#757575"/>
<circle cx="507" cy="419" r="1" fill="#757575"/>
<circle cx="529" cy="419" r="1" fill="#757575"/>
<circle cx="551" cy="419" r="1" fill="#757575"/>
<circle cx="573" cy="419" r="1" fill="#757575"/>
<circle cx="595" cy="419" r="1" fill="#757575"/>
<circle cx="1" cy="441" r="1" fill="#757575"/>
<circle cx="23" cy="441" r="1" fill="#757575"/>
<circle cx="45" cy="441" r="1" fill="#757575"/>
<circle cx="67" cy="441" r="1" fill="#757575"/>
<circle cx="89" cy="441" r="1" fill="#757575"/>
<circle cx="111" cy="441" r="1" fill="#757575"/>
<circle cx="133" cy="441" r="1" fill="#757575"/>
<circle cx="155" cy="441" r="1" fill="#757575"/>
<circle cx="177" cy="441" r="1" fill="#757575"/>
<circle cx="199" cy="441" r="1" fill="#757575"/>
<circle cx="221" cy="441" r="1" fill="#757575"/>
<circle cx="243" cy="441" r="1" fill="#757575"/>
<circle cx="265" cy="441" r="1" fill="#757575"/>
<circle cx="287" cy="441" r="1" fill="#757575"/>
<circle cx="309" cy="441" r="1" fill="#757575"/>
<circle cx="331" cy="441" r="1" fill="#757575"/>
<circle cx="353" cy="441" r="1" fill="#757575"/>
<circle cx="375" cy="441" r="1" fill="#757575"/>
<circle cx="397" cy="441" r="1" fill="#757575"/>
<circle cx="419" cy="441" r="1" fill="#757575"/>
<circle cx="441" cy="441" r="1" fill="#757575"/>
<circle cx="463" cy="441" r="1" fill="#757575"/>
<circle cx="485" cy="441" r="1" fill="#757575"/>
<circle cx="507" cy="441" r="1" fill="#757575"/>
<circle cx="529" cy="441" r="1" fill="#757575"/>
<circle cx="551" cy="441" r="1" fill="#757575"/>
<circle cx="573" cy="441" r="1" fill="#757575"/>
<circle cx="595" cy="441" r="1" fill="#757575"/>
<circle cx="1" cy="463" r="1" fill="#757575"/>
<circle cx="23" cy="463" r="1" fill="#757575"/>
<circle cx="45" cy="463" r="1" fill="#757575"/>
<circle cx="67" cy="463" r="1" fill="#757575"/>
<circle cx="89" cy="463" r="1" fill="#757575"/>
<circle cx="111" cy="463" r="1" fill="#757575"/>
<circle cx="133" cy="463" r="1" fill="#757575"/>
<circle cx="155" cy="463" r="1" fill="#757575"/>
<circle cx="177" cy="463" r="1" fill="#757575"/>
<circle cx="199" cy="463" r="1" fill="#757575"/>
<circle cx="221" cy="463" r="1" fill="#757575"/>
<circle cx="243" cy="463" r="1" fill="#757575"/>
<circle cx="265" cy="463" r="1" fill="#757575"/>
<circle cx="287" cy="463" r="1" fill="#757575"/>
<circle cx="309" cy="463" r="1" fill="#757575"/>
<circle cx="331" cy="463" r="1" fill="#757575"/>
<circle cx="353" cy="463" r="1" fill="#757575"/>
<circle cx="375" cy="463" r="1" fill="#757575"/>
<circle cx="397" cy="463" r="1" fill="#757575"/>
<circle cx="419" cy="463" r="1" fill="#757575"/>
<circle cx="441" cy="463" r="1" fill="#757575"/>
<circle cx="463" cy="463" r="1" fill="#757575"/>
<circle cx="485" cy="463" r="1" fill="#757575"/>
<circle cx="507" cy="463" r="1" fill="#757575"/>
<circle cx="529" cy="463" r="1" fill="#757575"/>
<circle cx="551" cy="463" r="1" fill="#757575"/>
<circle cx="573" cy="463" r="1" fill="#757575"/>
<circle cx="595" cy="463" r="1" fill="#757575"/>
<circle cx="1" cy="485" r="1" fill="#757575"/>
<circle cx="23" cy="485" r="1" fill="#757575"/>
<circle cx="45" cy="485" r="1" fill="#757575"/>
<circle cx="67" cy="485" r="1" fill="#757575"/>
<circle cx="89" cy="485" r="1" fill="#757575"/>
<circle cx="111" cy="485" r="1" fill="#757575"/>
<circle cx="133" cy="485" r="1" fill="#757575"/>
<circle cx="155" cy="485" r="1" fill="#757575"/>
<circle cx="177" cy="485" r="1" fill="#757575"/>
<circle cx="199" cy="485" r="1" fill="#757575"/>
<circle cx="221" cy="485" r="1" fill="#757575"/>
<circle cx="243" cy="485" r="1" fill="#757575"/>
<circle cx="265" cy="485" r="1" fill="#757575"/>
<circle cx="287" cy="485" r="1" fill="#757575"/>
<circle cx="309" cy="485" r="1" fill="#757575"/>
<circle cx="331" cy="485" r="1" fill="#757575"/>
<circle cx="353" cy="485" r="1" fill="#757575"/>
<circle cx="375" cy="485" r="1" fill="#757575"/>
<circle cx="397" cy="485" r="1" fill="#757575"/>
<circle cx="419" cy="485" r="1" fill="#757575"/>
<circle cx="441" cy="485" r="1" fill="#757575"/>
<circle cx="463" cy="485" r="1" fill="#757575"/>
<circle cx="485" cy="485" r="1" fill="#757575"/>
<circle cx="507" cy="485" r="1" fill="#757575"/>
<circle cx="529" cy="485" r="1" fill="#757575"/>
<circle cx="551" cy="485" r="1" fill="#757575"/>
<circle cx="573" cy="485" r="1" fill="#757575"/>
<circle cx="595" cy="485" r="1" fill="#757575"/>
<circle cx="1" cy="507" r="1" fill="#757575"/>
<circle cx="23" cy="507" r="1" fill="#757575"/>
<circle cx="45" cy="507" r="1" fill="#757575"/>
<circle cx="67" cy="507" r="1" fill="#757575"/>
<circle cx="89" cy="507" r="1" fill="#757575"/>
<circle cx="111" cy="507" r="1" fill="#757575"/>
<circle cx="133" cy="507" r="1" fill="#757575"/>
<circle cx="155" cy="507" r="1" fill="#757575"/>
<circle cx="177" cy="507" r="1" fill="#757575"/>
<circle cx="199" cy="507" r="1" fill="#757575"/>
<circle cx="221" cy="507" r="1" fill="#757575"/>
<circle cx="243" cy="507" r="1" fill="#757575"/>
<circle cx="265" cy="507" r="1" fill="#757575"/>
<circle cx="287" cy="507" r="1" fill="#757575"/>
<circle cx="309" cy="507" r="1" fill="#757575"/>
<circle cx="331" cy="507" r="1" fill="#757575"/>
<circle cx="353" cy="507" r="1" fill="#757575"/>
<circle cx="375" cy="507" r="1" fill="#757575"/>
<circle cx="397" cy="507" r="1" fill="#757575"/>
<circle cx="419" cy="507" r="1" fill="#757575"/>
<circle cx="441" cy="507" r="1" fill="#757575"/>
<circle cx="463" cy="507" r="1" fill="#757575"/>
<circle cx="485" cy="507" r="1" fill="#757575"/>
<circle cx="507" cy="507" r="1" fill="#757575"/>
<circle cx="529" cy="507" r="1" fill="#757575"/>
<circle cx="551" cy="507" r="1" fill="#757575"/>
<circle cx="573" cy="507" r="1" fill="#757575"/>
<circle cx="595" cy="507" r="1" fill="#757575"/>
<circle cx="1" cy="529" r="1" fill="#757575"/>
<circle cx="23" cy="529" r="1" fill="#757575"/>
<circle cx="45" cy="529" r="1" fill="#757575"/>
<circle cx="67" cy="529" r="1" fill="#757575"/>
<circle cx="89" cy="529" r="1" fill="#757575"/>
<circle cx="111" cy="529" r="1" fill="#757575"/>
<circle cx="133" cy="529" r="1" fill="#757575"/>
<circle cx="155" cy="529" r="1" fill="#757575"/>
<circle cx="177" cy="529" r="1" fill="#757575"/>
<circle cx="199" cy="529" r="1" fill="#757575"/>
<circle cx="221" cy="529" r="1" fill="#757575"/>
<circle cx="243" cy="529" r="1" fill="#757575"/>
<circle cx="265" cy="529" r="1" fill="#757575"/>
<circle cx="287" cy="529" r="1" fill="#757575"/>
<circle cx="309" cy="529" r="1" fill="#757575"/>
<circle cx="331" cy="529" r="1" fill="#757575"/>
<circle cx="353" cy="529" r="1" fill="#757575"/>
<circle cx="375" cy="529" r="1" fill="#757575"/>
<circle cx="397" cy="529" r="1" fill="#757575"/>
<circle cx="419" cy="529" r="1" fill="#757575"/>
<circle cx="441" cy="529" r="1" fill="#757575"/>
<circle cx="463" cy="529" r="1" fill="#757575"/>
<circle cx="485" cy="529" r="1" fill="#757575"/>
<circle cx="507" cy="529" r="1" fill="#757575"/>
<circle cx="529" cy="529" r="1" fill="#757575"/>
<circle cx="551" cy="529" r="1" fill="#757575"/>
<circle cx="573" cy="529" r="1" fill="#757575"/>
<circle cx="595" cy="529" r="1" fill="#757575"/>
<circle cx="1" cy="551" r="1" fill="#757575"/>
<circle cx="23" cy="551" r="1" fill="#757575"/>
<circle cx="45" cy="551" r="1" fill="#757575"/>
<circle cx="67" cy="551" r="1" fill="#757575"/>
<circle cx="89" cy="551" r="1" fill="#757575"/>
<circle cx="111" cy="551" r="1" fill="#757575"/>
<circle cx="133" cy="551" r="1" fill="#757575"/>
<circle cx="155" cy="551" r="1" fill="#757575"/>
<circle cx="177" cy="551" r="1" fill="#757575"/>
<circle cx="199" cy="551" r="1" fill="#757575"/>
<circle cx="221" cy="551" r="1" fill="#757575"/>
<circle cx="243" cy="551" r="1" fill="#757575"/>
<circle cx="265" cy="551" r="1" fill="#757575"/>
<circle cx="287" cy="551" r="1" fill="#757575"/>
<circle cx="309" cy="551" r="1" fill="#757575"/>
<circle cx="331" cy="551" r="1" fill="#757575"/>
<circle cx="353" cy="551" r="1" fill="#757575"/>
<circle cx="375" cy="551" r="1" fill="#757575"/>
<circle cx="397" cy="551" r="1" fill="#757575"/>
<circle cx="419" cy="551" r="1" fill="#757575"/>
<circle cx="441" cy="551" r="1" fill="#757575"/>
<circle cx="463" cy="551" r="1" fill="#757575"/>
<circle cx="485" cy="551" r="1" fill="#757575"/>
<circle cx="507" cy="551" r="1" fill="#757575"/>
<circle cx="529" cy="551" r="1" fill="#757575"/>
<circle cx="551" cy="551" r="1" fill="#757575"/>
<circle cx="573" cy="551" r="1" fill="#757575"/>
<circle cx="595" cy="551" r="1" fill="#757575"/>
<circle cx="1" cy="573" r="1" fill="#757575"/>
<circle cx="23" cy="573" r="1" fill="#757575"/>
<circle cx="45" cy="573" r="1" fill="#757575"/>
<circle cx="67" cy="573" r="1" fill="#757575"/>
<circle cx="89" cy="573" r="1" fill="#757575"/>
<circle cx="111" cy="573" r="1" fill="#757575"/>
<circle cx="133" cy="573" r="1" fill="#757575"/>
<circle cx="155" cy="573" r="1" fill="#757575"/>
<circle cx="177" cy="573" r="1" fill="#757575"/>
<circle cx="199" cy="573" r="1" fill="#757575"/>
<circle cx="221" cy="573" r="1" fill="#757575"/>
<circle cx="243" cy="573" r="1" fill="#757575"/>
<circle cx="265" cy="573" r="1" fill="#757575"/>
<circle cx="287" cy="573" r="1" fill="#757575"/>
<circle cx="309" cy="573" r="1" fill="#757575"/>
<circle cx="331" cy="573" r="1" fill="#757575"/>
<circle cx="353" cy="573" r="1" fill="#757575"/>
<circle cx="375" cy="573" r="1" fill="#757575"/>
<circle cx="397" cy="573" r="1" fill="#757575"/>
<circle cx="419" cy="573" r="1" fill="#757575"/>
<circle cx="441" cy="573" r="1" fill="#757575"/>
<circle cx="463" cy="573" r="1" fill="#757575"/>
<circle cx="485" cy="573" r="1" fill="#757575"/>
<circle cx="507" cy="573" r="1" fill="#757575"/>
<circle cx="529" cy="573" r="1" fill="#757575"/>
<circle cx="551" cy="573" r="1" fill="#757575"/>
<circle cx="573" cy="573" r="1" fill="#757575"/>
<circle cx="595" cy="573" r="1" fill="#757575"/>
<circle cx="1" cy="595" r="1" fill="#757575"/>
<circle cx="23" cy="595" r="1" fill="#757575"/>
<circle cx="45" cy="595" r="1" fill="#757575"/>
<circle cx="67" cy="595" r="1" fill="#757575"/>
<circle cx="89" cy="595" r="1" fill="#757575"/>
<circle cx="111" cy="595" r="1" fill="#757575"/>
<circle cx="133" cy="595" r="1" fill="#757575"/>
<circle cx="155" cy="595" r="1" fill="#757575"/>
<circle cx="177" cy="595" r="1" fill="#757575"/>
<circle cx="199" cy="595" r="1" fill="#757575"/>
<circle cx="221" cy="595" r="1" fill="#757575"/>
<circle cx="243" cy="595" r="1" fill="#757575"/>
<circle cx="265" cy="595" r="1" fill="#757575"/>
<circle cx="287" cy="595" r="1" fill="#757575"/>
<circle cx="309" cy="595" r="1" fill="#757575"/>
<circle cx="331" cy="595" r="1" fill="#757575"/>
<circle cx="353" cy="595" r="1" fill="#757575"/>
<circle cx="375" cy="595" r="1" fill="#757575"/>
<circle cx="397" cy="595" r="1" fill="#757575"/>
<circle cx="419" cy="595" r="1" fill="#757575"/>
<circle cx="441" cy="595" r="1" fill="#757575"/>
<circle cx="463" cy="595" r="1" fill="#757575"/>
<circle cx="485" cy="595" r="1" fill="#757575"/>
<circle cx="507" cy="595" r="1" fill="#757575"/>
<circle cx="529" cy="595" r="1" fill="#757575"/>
<circle cx="551" cy="595" r="1" fill="#757575"/>
<circle cx="573" cy="595" r="1" fill="#757575"/>
<circle cx="595" cy="595" r="1" fill="#757575"/>
</g>
<defs>
<clipPath id="clip0_61_363">
<rect width="600" height="600" fill="white"/>
</clipPath>
</defs>
</svg>
